{"cells":[{"cell_type":"markdown","metadata":{"id":"8GD35KB1XiYF"},"source":["# Code\n","\n","## Next steps\n","- record 60 fps : 10 left\n","- train a new model version and see the results\n","- if not sucessful, get more data\n","\n","## OBS\n","- Video names explained:\n","    - rf: right feet\n","    - lf: left feet\n","\n","- Data split: train (80%), valid (10%), test (10%)\n","    - train(16) : [lf0-11,rf0-3]\n","    - valid(2) : [lf12,rf4]\n","    - test(2) : [lf13,rf5]\n","\n","- Data transformations:\n","    - Get the same amount of no and yes frames for each video, since the first model failed based on the unbalenced data.\n","    - Consider yes when:  \n","        - starts when support foot is fully supported on the floor\n","        - ends before kicking the ball\n","\n","- History of recordings\n","    - 60 fps: lf4 - lf13\n","    - 30 fps: lf0 - lf3, rf0 - rf5"]},{"cell_type":"markdown","metadata":{},"source":["### Dependencies\n","- pip install torch==2.0.0+cu118 torchvision==0.15.1+cu118 torchaudio==2.0.1 --index-url https://download.pytorch.org/whl/cu118\n","- pip install ultralytics ipykernel moviepy"]},{"cell_type":"markdown","metadata":{},"source":["Check cuda"]},{"cell_type":"code","execution_count":26,"metadata":{},"outputs":[{"data":{"text/plain":["True"]},"execution_count":26,"metadata":{},"output_type":"execute_result"}],"source":["import torch\n","torch.cuda.is_available()"]},{"cell_type":"markdown","metadata":{},"source":["## Converting videos to images"]},{"cell_type":"code","execution_count":27,"metadata":{},"outputs":[{"name":"stdout","output_type":"stream","text":["/home/rafaa/pmy/penalty_project\n"]}],"source":["# trocando o diretório atual\n","import os\n","path = '/home/rafaa/pmy/penalty_project'\n","os.chdir(path)\n","print(os.getcwd())"]},{"cell_type":"code","execution_count":7,"metadata":{},"outputs":[{"name":"stdout","output_type":"stream","text":["data/videos/lf5.mp4 60/1\n"]},{"name":"stderr","output_type":"stream","text":["ffmpeg version 4.3.6-0+deb11u1 Copyright (c) 2000-2023 the FFmpeg developers\n","  built with gcc 10 (Debian 10.2.1-6)\n","  configuration: --prefix=/usr --extra-version=0+deb11u1 --toolchain=hardened --libdir=/usr/lib/x86_64-linux-gnu --incdir=/usr/include/x86_64-linux-gnu --arch=amd64 --enable-gpl --disable-stripping --enable-avresample --disable-filter=resample --enable-gnutls --enable-ladspa --enable-libaom --enable-libass --enable-libbluray --enable-libbs2b --enable-libcaca --enable-libcdio --enable-libcodec2 --enable-libdav1d --enable-libflite --enable-libfontconfig --enable-libfreetype --enable-libfribidi --enable-libgme --enable-libgsm --enable-libjack --enable-libmp3lame --enable-libmysofa --enable-libopenjpeg --enable-libopenmpt --enable-libopus --enable-libpulse --enable-librabbitmq --enable-librsvg --enable-librubberband --enable-libshine --enable-libsnappy --enable-libsoxr --enable-libspeex --enable-libsrt --enable-libssh --enable-libtheora --enable-libtwolame --enable-libvidstab --enable-libvorbis --enable-libvpx --enable-libwavpack --enable-libwebp --enable-libx265 --enable-libxml2 --enable-libxvid --enable-libzmq --enable-libzvbi --enable-lv2 --enable-omx --enable-openal --enable-opencl --enable-opengl --enable-sdl2 --enable-pocketsphinx --enable-libmfx --enable-libdc1394 --enable-libdrm --enable-libiec61883 --enable-chromaprint --enable-frei0r --enable-libx264 --enable-shared\n","  libavutil      56. 51.100 / 56. 51.100\n","  libavcodec     58. 91.100 / 58. 91.100\n","  libavformat    58. 45.100 / 58. 45.100\n","  libavdevice    58. 10.100 / 58. 10.100\n","  libavfilter     7. 85.100 /  7. 85.100\n","  libavresample   4.  0.  0 /  4.  0.  0\n","  libswscale      5.  7.100 /  5.  7.100\n","  libswresample   3.  7.100 /  3.  7.100\n","  libpostproc    55.  7.100 / 55.  7.100\n","Input #0, mov,mp4,m4a,3gp,3g2,mj2, from 'data/videos/lf5.mp4':\n","  Metadata:\n","    major_brand     : isom\n","    minor_version   : 512\n","    compatible_brands: isomiso2mp41\n","    creation_time   : 2024-02-21T02:40:28.000000Z\n","    Hw              : 1\n","    bitrate         : 18000000\n","    com.apple.quicktime.artwork: {\"data\":{\"infoStickerId\":\"\",\"is_use_relight\":0,\"is_use_voice_optimization\":0,\"motion_blur_cnt\":0,\"musicId\":\"\",\"os\":\"windows\",\"product\":\"vicut\",\"stickerId\":\"\",\"videoEffectId\":\"\",\"videoId\":\"1bd33070-c66b-490b-b186-be5c05f39c36\",\"videoParams\":{\"be\":0,\"ef\":0,\n","    maxrate         : 0\n","    te_is_reencode  : 1\n","    encoder         : Lavf58.76.100\n","  Duration: 00:00:00.67, start: 0.000000, bitrate: 10350 kb/s\n","    Stream #0:0(und): Video: hevc (Main 10) (hvc1 / 0x31637668), yuv420p10le(tv, bt709, progressive), 1920x1080 [SAR 1:1 DAR 16:9], 10422 kb/s, 60 fps, 60 tbr, 60 tbn, 60 tbc (default)\n","    Metadata:\n","      creation_time   : 2024-02-21T02:40:28.000000Z\n","      handler_name    : VideoHandler\n","    Stream #0:1(und): Audio: aac (LC) (mp4a / 0x6134706D), 44100 Hz, stereo, fltp, 2 kb/s (default)\n","    Metadata:\n","      creation_time   : 2024-02-21T02:40:28.000000Z\n","      handler_name    : SoundHandler\n","Stream mapping:\n","  Stream #0:0 -> #0:0 (hevc (native) -> mjpeg (native))\n","Press [q] to stop, [?] for help\n","[swscaler @ 0x55922c0504c0] deprecated pixel format used, make sure you did set range correctly\n","Output #0, image2, to 'data/images/lf5/lf5_%04d.jpg':\n","  Metadata:\n","    major_brand     : isom\n","    minor_version   : 512\n","    compatible_brands: isomiso2mp41\n","    te_is_reencode  : 1\n","    Hw              : 1\n","    bitrate         : 18000000\n","    com.apple.quicktime.artwork: {\"data\":{\"infoStickerId\":\"\",\"is_use_relight\":0,\"is_use_voice_optimization\":0,\"motion_blur_cnt\":0,\"musicId\":\"\",\"os\":\"windows\",\"product\":\"vicut\",\"stickerId\":\"\",\"videoEffectId\":\"\",\"videoId\":\"1bd33070-c66b-490b-b186-be5c05f39c36\",\"videoParams\":{\"be\":0,\"ef\":0,\n","    maxrate         : 0\n","    encoder         : Lavf58.45.100\n","    Stream #0:0(und): Video: mjpeg, yuvj420p(pc), 1920x1080 [SAR 1:1 DAR 16:9], q=1-31, 200 kb/s, 60 fps, 60 tbn, 60 tbc (default)\n","    Metadata:\n","      creation_time   : 2024-02-21T02:40:28.000000Z\n","      handler_name    : VideoHandler\n","      encoder         : Lavc58.91.100 mjpeg\n","    Side data:\n","      cpb: bitrate max/min/avg: 0/0/200000 buffer size: 0 vbv_delay: N/A\n","frame=   40 fps=0.0 q=0.0 Lsize=N/A time=00:00:00.66 bitrate=N/A speed=1.11x    \n","video:25193kB audio:0kB subtitle:0kB other streams:0kB global headers:0kB muxing overhead: unknown\n"]},{"name":"stdout","output_type":"stream","text":["Conversion complete\n","data/videos/lf6.mp4 60/1\n"]},{"name":"stderr","output_type":"stream","text":["ffmpeg version 4.3.6-0+deb11u1 Copyright (c) 2000-2023 the FFmpeg developers\n","  built with gcc 10 (Debian 10.2.1-6)\n","  configuration: --prefix=/usr --extra-version=0+deb11u1 --toolchain=hardened --libdir=/usr/lib/x86_64-linux-gnu --incdir=/usr/include/x86_64-linux-gnu --arch=amd64 --enable-gpl --disable-stripping --enable-avresample --disable-filter=resample --enable-gnutls --enable-ladspa --enable-libaom --enable-libass --enable-libbluray --enable-libbs2b --enable-libcaca --enable-libcdio --enable-libcodec2 --enable-libdav1d --enable-libflite --enable-libfontconfig --enable-libfreetype --enable-libfribidi --enable-libgme --enable-libgsm --enable-libjack --enable-libmp3lame --enable-libmysofa --enable-libopenjpeg --enable-libopenmpt --enable-libopus --enable-libpulse --enable-librabbitmq --enable-librsvg --enable-librubberband --enable-libshine --enable-libsnappy --enable-libsoxr --enable-libspeex --enable-libsrt --enable-libssh --enable-libtheora --enable-libtwolame --enable-libvidstab --enable-libvorbis --enable-libvpx --enable-libwavpack --enable-libwebp --enable-libx265 --enable-libxml2 --enable-libxvid --enable-libzmq --enable-libzvbi --enable-lv2 --enable-omx --enable-openal --enable-opencl --enable-opengl --enable-sdl2 --enable-pocketsphinx --enable-libmfx --enable-libdc1394 --enable-libdrm --enable-libiec61883 --enable-chromaprint --enable-frei0r --enable-libx264 --enable-shared\n","  libavutil      56. 51.100 / 56. 51.100\n","  libavcodec     58. 91.100 / 58. 91.100\n","  libavformat    58. 45.100 / 58. 45.100\n","  libavdevice    58. 10.100 / 58. 10.100\n","  libavfilter     7. 85.100 /  7. 85.100\n","  libavresample   4.  0.  0 /  4.  0.  0\n","  libswscale      5.  7.100 /  5.  7.100\n","  libswresample   3.  7.100 /  3.  7.100\n","  libpostproc    55.  7.100 / 55.  7.100\n","Input #0, mov,mp4,m4a,3gp,3g2,mj2, from 'data/videos/lf6.mp4':\n","  Metadata:\n","    major_brand     : isom\n","    minor_version   : 512\n","    compatible_brands: isomiso2mp41\n","    creation_time   : 2024-02-21T02:41:22.000000Z\n","    Hw              : 1\n","    bitrate         : 18000000\n","    com.apple.quicktime.artwork: {\"data\":{\"infoStickerId\":\"\",\"is_use_relight\":0,\"is_use_voice_optimization\":0,\"motion_blur_cnt\":0,\"musicId\":\"\",\"os\":\"windows\",\"product\":\"vicut\",\"stickerId\":\"\",\"videoEffectId\":\"\",\"videoId\":\"e81e1681-ca3f-4aaa-b392-3f6565825a08\",\"videoParams\":{\"be\":0,\"ef\":0,\n","    maxrate         : 0\n","    te_is_reencode  : 1\n","    encoder         : Lavf58.76.100\n","  Duration: 00:00:00.77, start: 0.000000, bitrate: 10260 kb/s\n","    Stream #0:0(und): Video: hevc (Main 10) (hvc1 / 0x31637668), yuv420p10le(tv, bt709, progressive), 1920x1080 [SAR 1:1 DAR 16:9], 10454 kb/s, 60 fps, 60 tbr, 60 tbn, 60 tbc (default)\n","    Metadata:\n","      creation_time   : 2024-02-21T02:41:22.000000Z\n","      handler_name    : VideoHandler\n","    Stream #0:1(und): Audio: aac (LC) (mp4a / 0x6134706D), 44100 Hz, stereo, fltp, 2 kb/s (default)\n","    Metadata:\n","      creation_time   : 2024-02-21T02:41:22.000000Z\n","      handler_name    : SoundHandler\n","Stream mapping:\n","  Stream #0:0 -> #0:0 (hevc (native) -> mjpeg (native))\n","Press [q] to stop, [?] for help\n","[swscaler @ 0x556b7fcf8280] deprecated pixel format used, make sure you did set range correctly\n","Output #0, image2, to 'data/images/lf6/lf6_%04d.jpg':\n","  Metadata:\n","    major_brand     : isom\n","    minor_version   : 512\n","    compatible_brands: isomiso2mp41\n","    te_is_reencode  : 1\n","    Hw              : 1\n","    bitrate         : 18000000\n","    com.apple.quicktime.artwork: {\"data\":{\"infoStickerId\":\"\",\"is_use_relight\":0,\"is_use_voice_optimization\":0,\"motion_blur_cnt\":0,\"musicId\":\"\",\"os\":\"windows\",\"product\":\"vicut\",\"stickerId\":\"\",\"videoEffectId\":\"\",\"videoId\":\"e81e1681-ca3f-4aaa-b392-3f6565825a08\",\"videoParams\":{\"be\":0,\"ef\":0,\n","    maxrate         : 0\n","    encoder         : Lavf58.45.100\n","    Stream #0:0(und): Video: mjpeg, yuvj420p(pc), 1920x1080 [SAR 1:1 DAR 16:9], q=1-31, 200 kb/s, 60 fps, 60 tbn, 60 tbc (default)\n","    Metadata:\n","      creation_time   : 2024-02-21T02:41:22.000000Z\n","      handler_name    : VideoHandler\n","      encoder         : Lavc58.91.100 mjpeg\n","    Side data:\n","      cpb: bitrate max/min/avg: 0/0/200000 buffer size: 0 vbv_delay: N/A\n","frame=   45 fps=0.0 q=0.0 Lsize=N/A time=00:00:00.75 bitrate=N/A speed=1.21x    \n","video:27872kB audio:0kB subtitle:0kB other streams:0kB global headers:0kB muxing overhead: unknown\n"]},{"name":"stdout","output_type":"stream","text":["Conversion complete\n","data/videos/lf7.mp4 60/1\n"]},{"name":"stderr","output_type":"stream","text":["ffmpeg version 4.3.6-0+deb11u1 Copyright (c) 2000-2023 the FFmpeg developers\n","  built with gcc 10 (Debian 10.2.1-6)\n","  configuration: --prefix=/usr --extra-version=0+deb11u1 --toolchain=hardened --libdir=/usr/lib/x86_64-linux-gnu --incdir=/usr/include/x86_64-linux-gnu --arch=amd64 --enable-gpl --disable-stripping --enable-avresample --disable-filter=resample --enable-gnutls --enable-ladspa --enable-libaom --enable-libass --enable-libbluray --enable-libbs2b --enable-libcaca --enable-libcdio --enable-libcodec2 --enable-libdav1d --enable-libflite --enable-libfontconfig --enable-libfreetype --enable-libfribidi --enable-libgme --enable-libgsm --enable-libjack --enable-libmp3lame --enable-libmysofa --enable-libopenjpeg --enable-libopenmpt --enable-libopus --enable-libpulse --enable-librabbitmq --enable-librsvg --enable-librubberband --enable-libshine --enable-libsnappy --enable-libsoxr --enable-libspeex --enable-libsrt --enable-libssh --enable-libtheora --enable-libtwolame --enable-libvidstab --enable-libvorbis --enable-libvpx --enable-libwavpack --enable-libwebp --enable-libx265 --enable-libxml2 --enable-libxvid --enable-libzmq --enable-libzvbi --enable-lv2 --enable-omx --enable-openal --enable-opencl --enable-opengl --enable-sdl2 --enable-pocketsphinx --enable-libmfx --enable-libdc1394 --enable-libdrm --enable-libiec61883 --enable-chromaprint --enable-frei0r --enable-libx264 --enable-shared\n","  libavutil      56. 51.100 / 56. 51.100\n","  libavcodec     58. 91.100 / 58. 91.100\n","  libavformat    58. 45.100 / 58. 45.100\n","  libavdevice    58. 10.100 / 58. 10.100\n","  libavfilter     7. 85.100 /  7. 85.100\n","  libavresample   4.  0.  0 /  4.  0.  0\n","  libswscale      5.  7.100 /  5.  7.100\n","  libswresample   3.  7.100 /  3.  7.100\n","  libpostproc    55.  7.100 / 55.  7.100\n","Input #0, mov,mp4,m4a,3gp,3g2,mj2, from 'data/videos/lf7.mp4':\n","  Metadata:\n","    major_brand     : isom\n","    minor_version   : 512\n","    compatible_brands: isomiso2mp41\n","    creation_time   : 2024-02-21T02:41:47.000000Z\n","    Hw              : 1\n","    bitrate         : 18000000\n","    com.apple.quicktime.artwork: {\"data\":{\"infoStickerId\":\"\",\"is_use_relight\":0,\"is_use_voice_optimization\":0,\"motion_blur_cnt\":0,\"musicId\":\"\",\"os\":\"windows\",\"product\":\"vicut\",\"stickerId\":\"\",\"videoEffectId\":\"\",\"videoId\":\"93477dcc-4669-48b8-97f3-a25874866e0d\",\"videoParams\":{\"be\":0,\"ef\":0,\n","    maxrate         : 0\n","    te_is_reencode  : 1\n","    encoder         : Lavf58.76.100\n","  Duration: 00:00:00.72, start: 0.000000, bitrate: 10188 kb/s\n","    Stream #0:0(und): Video: hevc (Main 10) (hvc1 / 0x31637668), yuv420p10le(tv, bt709, progressive), 1920x1080 [SAR 1:1 DAR 16:9], 10196 kb/s, 60 fps, 60 tbr, 60 tbn, 60 tbc (default)\n","    Metadata:\n","      creation_time   : 2024-02-21T02:41:47.000000Z\n","      handler_name    : VideoHandler\n","    Stream #0:1(und): Audio: aac (LC) (mp4a / 0x6134706D), 44100 Hz, stereo, fltp, 2 kb/s (default)\n","    Metadata:\n","      creation_time   : 2024-02-21T02:41:47.000000Z\n","      handler_name    : SoundHandler\n","Stream mapping:\n","  Stream #0:0 -> #0:0 (hevc (native) -> mjpeg (native))\n","Press [q] to stop, [?] for help\n","[swscaler @ 0x5577115bcd00] deprecated pixel format used, make sure you did set range correctly\n","Output #0, image2, to 'data/images/lf7/lf7_%04d.jpg':\n","  Metadata:\n","    major_brand     : isom\n","    minor_version   : 512\n","    compatible_brands: isomiso2mp41\n","    te_is_reencode  : 1\n","    Hw              : 1\n","    bitrate         : 18000000\n","    com.apple.quicktime.artwork: {\"data\":{\"infoStickerId\":\"\",\"is_use_relight\":0,\"is_use_voice_optimization\":0,\"motion_blur_cnt\":0,\"musicId\":\"\",\"os\":\"windows\",\"product\":\"vicut\",\"stickerId\":\"\",\"videoEffectId\":\"\",\"videoId\":\"93477dcc-4669-48b8-97f3-a25874866e0d\",\"videoParams\":{\"be\":0,\"ef\":0,\n","    maxrate         : 0\n","    encoder         : Lavf58.45.100\n","    Stream #0:0(und): Video: mjpeg, yuvj420p(pc), 1920x1080 [SAR 1:1 DAR 16:9], q=1-31, 200 kb/s, 60 fps, 60 tbn, 60 tbc (default)\n","    Metadata:\n","      creation_time   : 2024-02-21T02:41:47.000000Z\n","      handler_name    : VideoHandler\n","      encoder         : Lavc58.91.100 mjpeg\n","    Side data:\n","      cpb: bitrate max/min/avg: 0/0/200000 buffer size: 0 vbv_delay: N/A\n","frame=   43 fps=0.0 q=0.0 Lsize=N/A time=00:00:00.71 bitrate=N/A speed=1.19x    \n","video:26701kB audio:0kB subtitle:0kB other streams:0kB global headers:0kB muxing overhead: unknown\n"]},{"name":"stdout","output_type":"stream","text":["Conversion complete\n","data/videos/lf11.mp4 60/1\n"]},{"name":"stderr","output_type":"stream","text":["ffmpeg version 4.3.6-0+deb11u1 Copyright (c) 2000-2023 the FFmpeg developers\n","  built with gcc 10 (Debian 10.2.1-6)\n","  configuration: --prefix=/usr --extra-version=0+deb11u1 --toolchain=hardened --libdir=/usr/lib/x86_64-linux-gnu --incdir=/usr/include/x86_64-linux-gnu --arch=amd64 --enable-gpl --disable-stripping --enable-avresample --disable-filter=resample --enable-gnutls --enable-ladspa --enable-libaom --enable-libass --enable-libbluray --enable-libbs2b --enable-libcaca --enable-libcdio --enable-libcodec2 --enable-libdav1d --enable-libflite --enable-libfontconfig --enable-libfreetype --enable-libfribidi --enable-libgme --enable-libgsm --enable-libjack --enable-libmp3lame --enable-libmysofa --enable-libopenjpeg --enable-libopenmpt --enable-libopus --enable-libpulse --enable-librabbitmq --enable-librsvg --enable-librubberband --enable-libshine --enable-libsnappy --enable-libsoxr --enable-libspeex --enable-libsrt --enable-libssh --enable-libtheora --enable-libtwolame --enable-libvidstab --enable-libvorbis --enable-libvpx --enable-libwavpack --enable-libwebp --enable-libx265 --enable-libxml2 --enable-libxvid --enable-libzmq --enable-libzvbi --enable-lv2 --enable-omx --enable-openal --enable-opencl --enable-opengl --enable-sdl2 --enable-pocketsphinx --enable-libmfx --enable-libdc1394 --enable-libdrm --enable-libiec61883 --enable-chromaprint --enable-frei0r --enable-libx264 --enable-shared\n","  libavutil      56. 51.100 / 56. 51.100\n","  libavcodec     58. 91.100 / 58. 91.100\n","  libavformat    58. 45.100 / 58. 45.100\n","  libavdevice    58. 10.100 / 58. 10.100\n","  libavfilter     7. 85.100 /  7. 85.100\n","  libavresample   4.  0.  0 /  4.  0.  0\n","  libswscale      5.  7.100 /  5.  7.100\n","  libswresample   3.  7.100 /  3.  7.100\n","  libpostproc    55.  7.100 / 55.  7.100\n","Input #0, mov,mp4,m4a,3gp,3g2,mj2, from 'data/videos/lf11.mp4':\n","  Metadata:\n","    major_brand     : isom\n","    minor_version   : 512\n","    compatible_brands: isomiso2mp41\n","    creation_time   : 2024-02-21T02:43:18.000000Z\n","    Hw              : 1\n","    bitrate         : 18000000\n","    com.apple.quicktime.artwork: {\"data\":{\"infoStickerId\":\"\",\"is_use_relight\":0,\"is_use_voice_optimization\":0,\"motion_blur_cnt\":0,\"musicId\":\"\",\"os\":\"windows\",\"product\":\"vicut\",\"stickerId\":\"\",\"videoEffectId\":\"\",\"videoId\":\"4691f817-c659-450b-8fb4-8bc4fdeb022e\",\"videoParams\":{\"be\":0,\"ef\":0,\n","    maxrate         : 0\n","    te_is_reencode  : 1\n","    encoder         : Lavf58.76.100\n","  Duration: 00:00:00.70, start: 0.000000, bitrate: 10389 kb/s\n","    Stream #0:0(und): Video: hevc (Main 10) (hvc1 / 0x31637668), yuv420p10le(tv, bt709, progressive), 1920x1080 [SAR 1:1 DAR 16:9], 10556 kb/s, 60 fps, 60 tbr, 60 tbn, 60 tbc (default)\n","    Metadata:\n","      creation_time   : 2024-02-21T02:43:18.000000Z\n","      handler_name    : VideoHandler\n","    Stream #0:1(und): Audio: aac (LC) (mp4a / 0x6134706D), 44100 Hz, stereo, fltp, 2 kb/s (default)\n","    Metadata:\n","      creation_time   : 2024-02-21T02:43:18.000000Z\n","      handler_name    : SoundHandler\n","Stream mapping:\n","  Stream #0:0 -> #0:0 (hevc (native) -> mjpeg (native))\n","Press [q] to stop, [?] for help\n","[swscaler @ 0x55e373bdd4c0] deprecated pixel format used, make sure you did set range correctly\n","Output #0, image2, to 'data/images/lf11/lf11_%04d.jpg':\n","  Metadata:\n","    major_brand     : isom\n","    minor_version   : 512\n","    compatible_brands: isomiso2mp41\n","    te_is_reencode  : 1\n","    Hw              : 1\n","    bitrate         : 18000000\n","    com.apple.quicktime.artwork: {\"data\":{\"infoStickerId\":\"\",\"is_use_relight\":0,\"is_use_voice_optimization\":0,\"motion_blur_cnt\":0,\"musicId\":\"\",\"os\":\"windows\",\"product\":\"vicut\",\"stickerId\":\"\",\"videoEffectId\":\"\",\"videoId\":\"4691f817-c659-450b-8fb4-8bc4fdeb022e\",\"videoParams\":{\"be\":0,\"ef\":0,\n","    maxrate         : 0\n","    encoder         : Lavf58.45.100\n","    Stream #0:0(und): Video: mjpeg, yuvj420p(pc), 1920x1080 [SAR 1:1 DAR 16:9], q=1-31, 200 kb/s, 60 fps, 60 tbn, 60 tbc (default)\n","    Metadata:\n","      creation_time   : 2024-02-21T02:43:18.000000Z\n","      handler_name    : VideoHandler\n","      encoder         : Lavc58.91.100 mjpeg\n","    Side data:\n","      cpb: bitrate max/min/avg: 0/0/200000 buffer size: 0 vbv_delay: N/A\n","frame=   41 fps=0.0 q=0.0 Lsize=N/A time=00:00:00.68 bitrate=N/A speed=1.13x    \n","video:25572kB audio:0kB subtitle:0kB other streams:0kB global headers:0kB muxing overhead: unknown\n"]},{"name":"stdout","output_type":"stream","text":["Conversion complete\n","data/videos/lf8.mp4 60/1\n"]},{"name":"stderr","output_type":"stream","text":["ffmpeg version 4.3.6-0+deb11u1 Copyright (c) 2000-2023 the FFmpeg developers\n","  built with gcc 10 (Debian 10.2.1-6)\n","  configuration: --prefix=/usr --extra-version=0+deb11u1 --toolchain=hardened --libdir=/usr/lib/x86_64-linux-gnu --incdir=/usr/include/x86_64-linux-gnu --arch=amd64 --enable-gpl --disable-stripping --enable-avresample --disable-filter=resample --enable-gnutls --enable-ladspa --enable-libaom --enable-libass --enable-libbluray --enable-libbs2b --enable-libcaca --enable-libcdio --enable-libcodec2 --enable-libdav1d --enable-libflite --enable-libfontconfig --enable-libfreetype --enable-libfribidi --enable-libgme --enable-libgsm --enable-libjack --enable-libmp3lame --enable-libmysofa --enable-libopenjpeg --enable-libopenmpt --enable-libopus --enable-libpulse --enable-librabbitmq --enable-librsvg --enable-librubberband --enable-libshine --enable-libsnappy --enable-libsoxr --enable-libspeex --enable-libsrt --enable-libssh --enable-libtheora --enable-libtwolame --enable-libvidstab --enable-libvorbis --enable-libvpx --enable-libwavpack --enable-libwebp --enable-libx265 --enable-libxml2 --enable-libxvid --enable-libzmq --enable-libzvbi --enable-lv2 --enable-omx --enable-openal --enable-opencl --enable-opengl --enable-sdl2 --enable-pocketsphinx --enable-libmfx --enable-libdc1394 --enable-libdrm --enable-libiec61883 --enable-chromaprint --enable-frei0r --enable-libx264 --enable-shared\n","  libavutil      56. 51.100 / 56. 51.100\n","  libavcodec     58. 91.100 / 58. 91.100\n","  libavformat    58. 45.100 / 58. 45.100\n","  libavdevice    58. 10.100 / 58. 10.100\n","  libavfilter     7. 85.100 /  7. 85.100\n","  libavresample   4.  0.  0 /  4.  0.  0\n","  libswscale      5.  7.100 /  5.  7.100\n","  libswresample   3.  7.100 /  3.  7.100\n","  libpostproc    55.  7.100 / 55.  7.100\n","Input #0, mov,mp4,m4a,3gp,3g2,mj2, from 'data/videos/lf8.mp4':\n","  Metadata:\n","    major_brand     : isom\n","    minor_version   : 512\n","    compatible_brands: isomiso2mp41\n","    creation_time   : 2024-02-21T02:42:16.000000Z\n","    Hw              : 1\n","    bitrate         : 18000000\n","    com.apple.quicktime.artwork: {\"data\":{\"infoStickerId\":\"\",\"is_use_relight\":0,\"is_use_voice_optimization\":0,\"motion_blur_cnt\":0,\"musicId\":\"\",\"os\":\"windows\",\"product\":\"vicut\",\"stickerId\":\"\",\"videoEffectId\":\"\",\"videoId\":\"0bf51f72-5adb-469e-b156-1772d999f7a3\",\"videoParams\":{\"be\":0,\"ef\":0,\n","    maxrate         : 0\n","    te_is_reencode  : 1\n","    encoder         : Lavf58.76.100\n","  Duration: 00:00:00.72, start: 0.000000, bitrate: 10621 kb/s\n","    Stream #0:0(und): Video: hevc (Main 10) (hvc1 / 0x31637668), yuv420p10le(tv, bt709, progressive), 1920x1080 [SAR 1:1 DAR 16:9], 10884 kb/s, 60 fps, 60 tbr, 60 tbn, 60 tbc (default)\n","    Metadata:\n","      creation_time   : 2024-02-21T02:42:16.000000Z\n","      handler_name    : VideoHandler\n","    Stream #0:1(und): Audio: aac (LC) (mp4a / 0x6134706D), 44100 Hz, stereo, fltp, 2 kb/s (default)\n","    Metadata:\n","      creation_time   : 2024-02-21T02:42:16.000000Z\n","      handler_name    : SoundHandler\n","Stream mapping:\n","  Stream #0:0 -> #0:0 (hevc (native) -> mjpeg (native))\n","Press [q] to stop, [?] for help\n","[swscaler @ 0x5643f6396440] deprecated pixel format used, make sure you did set range correctly\n","Output #0, image2, to 'data/images/lf8/lf8_%04d.jpg':\n","  Metadata:\n","    major_brand     : isom\n","    minor_version   : 512\n","    compatible_brands: isomiso2mp41\n","    te_is_reencode  : 1\n","    Hw              : 1\n","    bitrate         : 18000000\n","    com.apple.quicktime.artwork: {\"data\":{\"infoStickerId\":\"\",\"is_use_relight\":0,\"is_use_voice_optimization\":0,\"motion_blur_cnt\":0,\"musicId\":\"\",\"os\":\"windows\",\"product\":\"vicut\",\"stickerId\":\"\",\"videoEffectId\":\"\",\"videoId\":\"0bf51f72-5adb-469e-b156-1772d999f7a3\",\"videoParams\":{\"be\":0,\"ef\":0,\n","    maxrate         : 0\n","    encoder         : Lavf58.45.100\n","    Stream #0:0(und): Video: mjpeg, yuvj420p(pc), 1920x1080 [SAR 1:1 DAR 16:9], q=1-31, 200 kb/s, 60 fps, 60 tbn, 60 tbc (default)\n","    Metadata:\n","      creation_time   : 2024-02-21T02:42:16.000000Z\n","      handler_name    : VideoHandler\n","      encoder         : Lavc58.91.100 mjpeg\n","    Side data:\n","      cpb: bitrate max/min/avg: 0/0/200000 buffer size: 0 vbv_delay: N/A\n","frame=   42 fps=0.0 q=0.0 Lsize=N/A time=00:00:00.70 bitrate=N/A speed=1.18x    \n","video:26009kB audio:0kB subtitle:0kB other streams:0kB global headers:0kB muxing overhead: unknown\n"]},{"name":"stdout","output_type":"stream","text":["Conversion complete\n","data/videos/lf10.mp4 60/1\n"]},{"name":"stderr","output_type":"stream","text":["ffmpeg version 4.3.6-0+deb11u1 Copyright (c) 2000-2023 the FFmpeg developers\n","  built with gcc 10 (Debian 10.2.1-6)\n","  configuration: --prefix=/usr --extra-version=0+deb11u1 --toolchain=hardened --libdir=/usr/lib/x86_64-linux-gnu --incdir=/usr/include/x86_64-linux-gnu --arch=amd64 --enable-gpl --disable-stripping --enable-avresample --disable-filter=resample --enable-gnutls --enable-ladspa --enable-libaom --enable-libass --enable-libbluray --enable-libbs2b --enable-libcaca --enable-libcdio --enable-libcodec2 --enable-libdav1d --enable-libflite --enable-libfontconfig --enable-libfreetype --enable-libfribidi --enable-libgme --enable-libgsm --enable-libjack --enable-libmp3lame --enable-libmysofa --enable-libopenjpeg --enable-libopenmpt --enable-libopus --enable-libpulse --enable-librabbitmq --enable-librsvg --enable-librubberband --enable-libshine --enable-libsnappy --enable-libsoxr --enable-libspeex --enable-libsrt --enable-libssh --enable-libtheora --enable-libtwolame --enable-libvidstab --enable-libvorbis --enable-libvpx --enable-libwavpack --enable-libwebp --enable-libx265 --enable-libxml2 --enable-libxvid --enable-libzmq --enable-libzvbi --enable-lv2 --enable-omx --enable-openal --enable-opencl --enable-opengl --enable-sdl2 --enable-pocketsphinx --enable-libmfx --enable-libdc1394 --enable-libdrm --enable-libiec61883 --enable-chromaprint --enable-frei0r --enable-libx264 --enable-shared\n","  libavutil      56. 51.100 / 56. 51.100\n","  libavcodec     58. 91.100 / 58. 91.100\n","  libavformat    58. 45.100 / 58. 45.100\n","  libavdevice    58. 10.100 / 58. 10.100\n","  libavfilter     7. 85.100 /  7. 85.100\n","  libavresample   4.  0.  0 /  4.  0.  0\n","  libswscale      5.  7.100 /  5.  7.100\n","  libswresample   3.  7.100 /  3.  7.100\n","  libpostproc    55.  7.100 / 55.  7.100\n","Input #0, mov,mp4,m4a,3gp,3g2,mj2, from 'data/videos/lf10.mp4':\n","  Metadata:\n","    major_brand     : isom\n","    minor_version   : 512\n","    compatible_brands: isomiso2mp41\n","    creation_time   : 2024-02-21T02:42:58.000000Z\n","    Hw              : 1\n","    bitrate         : 18000000\n","    com.apple.quicktime.artwork: {\"data\":{\"infoStickerId\":\"\",\"is_use_relight\":0,\"is_use_voice_optimization\":0,\"motion_blur_cnt\":0,\"musicId\":\"\",\"os\":\"windows\",\"product\":\"vicut\",\"stickerId\":\"\",\"videoEffectId\":\"\",\"videoId\":\"5ace5aa2-520e-43d3-a566-2d5ddff9fcec\",\"videoParams\":{\"be\":0,\"ef\":0,\n","    maxrate         : 0\n","    te_is_reencode  : 1\n","    encoder         : Lavf58.76.100\n","  Duration: 00:00:00.74, start: 0.000000, bitrate: 10926 kb/s\n","    Stream #0:0(und): Video: hevc (Main 10) (hvc1 / 0x31637668), yuv420p10le(tv, bt709, progressive), 1920x1080 [SAR 1:1 DAR 16:9], 11046 kb/s, 60 fps, 60 tbr, 60 tbn, 60 tbc (default)\n","    Metadata:\n","      creation_time   : 2024-02-21T02:42:58.000000Z\n","      handler_name    : VideoHandler\n","    Stream #0:1(und): Audio: aac (LC) (mp4a / 0x6134706D), 44100 Hz, stereo, fltp, 2 kb/s (default)\n","    Metadata:\n","      creation_time   : 2024-02-21T02:42:58.000000Z\n","      handler_name    : SoundHandler\n","Stream mapping:\n","  Stream #0:0 -> #0:0 (hevc (native) -> mjpeg (native))\n","Press [q] to stop, [?] for help\n","[swscaler @ 0x557e5b637980] deprecated pixel format used, make sure you did set range correctly\n","Output #0, image2, to 'data/images/lf10/lf10_%04d.jpg':\n","  Metadata:\n","    major_brand     : isom\n","    minor_version   : 512\n","    compatible_brands: isomiso2mp41\n","    te_is_reencode  : 1\n","    Hw              : 1\n","    bitrate         : 18000000\n","    com.apple.quicktime.artwork: {\"data\":{\"infoStickerId\":\"\",\"is_use_relight\":0,\"is_use_voice_optimization\":0,\"motion_blur_cnt\":0,\"musicId\":\"\",\"os\":\"windows\",\"product\":\"vicut\",\"stickerId\":\"\",\"videoEffectId\":\"\",\"videoId\":\"5ace5aa2-520e-43d3-a566-2d5ddff9fcec\",\"videoParams\":{\"be\":0,\"ef\":0,\n","    maxrate         : 0\n","    encoder         : Lavf58.45.100\n","    Stream #0:0(und): Video: mjpeg, yuvj420p(pc), 1920x1080 [SAR 1:1 DAR 16:9], q=1-31, 200 kb/s, 60 fps, 60 tbn, 60 tbc (default)\n","    Metadata:\n","      creation_time   : 2024-02-21T02:42:58.000000Z\n","      handler_name    : VideoHandler\n","      encoder         : Lavc58.91.100 mjpeg\n","    Side data:\n","      cpb: bitrate max/min/avg: 0/0/200000 buffer size: 0 vbv_delay: N/A\n","frame=   44 fps=0.0 q=0.0 Lsize=N/A time=00:00:00.73 bitrate=N/A speed=1.19x    \n","video:27954kB audio:0kB subtitle:0kB other streams:0kB global headers:0kB muxing overhead: unknown\n"]},{"name":"stdout","output_type":"stream","text":["Conversion complete\n","data/videos/lf12.mp4 60/1\n"]},{"name":"stderr","output_type":"stream","text":["ffmpeg version 4.3.6-0+deb11u1 Copyright (c) 2000-2023 the FFmpeg developers\n","  built with gcc 10 (Debian 10.2.1-6)\n","  configuration: --prefix=/usr --extra-version=0+deb11u1 --toolchain=hardened --libdir=/usr/lib/x86_64-linux-gnu --incdir=/usr/include/x86_64-linux-gnu --arch=amd64 --enable-gpl --disable-stripping --enable-avresample --disable-filter=resample --enable-gnutls --enable-ladspa --enable-libaom --enable-libass --enable-libbluray --enable-libbs2b --enable-libcaca --enable-libcdio --enable-libcodec2 --enable-libdav1d --enable-libflite --enable-libfontconfig --enable-libfreetype --enable-libfribidi --enable-libgme --enable-libgsm --enable-libjack --enable-libmp3lame --enable-libmysofa --enable-libopenjpeg --enable-libopenmpt --enable-libopus --enable-libpulse --enable-librabbitmq --enable-librsvg --enable-librubberband --enable-libshine --enable-libsnappy --enable-libsoxr --enable-libspeex --enable-libsrt --enable-libssh --enable-libtheora --enable-libtwolame --enable-libvidstab --enable-libvorbis --enable-libvpx --enable-libwavpack --enable-libwebp --enable-libx265 --enable-libxml2 --enable-libxvid --enable-libzmq --enable-libzvbi --enable-lv2 --enable-omx --enable-openal --enable-opencl --enable-opengl --enable-sdl2 --enable-pocketsphinx --enable-libmfx --enable-libdc1394 --enable-libdrm --enable-libiec61883 --enable-chromaprint --enable-frei0r --enable-libx264 --enable-shared\n","  libavutil      56. 51.100 / 56. 51.100\n","  libavcodec     58. 91.100 / 58. 91.100\n","  libavformat    58. 45.100 / 58. 45.100\n","  libavdevice    58. 10.100 / 58. 10.100\n","  libavfilter     7. 85.100 /  7. 85.100\n","  libavresample   4.  0.  0 /  4.  0.  0\n","  libswscale      5.  7.100 /  5.  7.100\n","  libswresample   3.  7.100 /  3.  7.100\n","  libpostproc    55.  7.100 / 55.  7.100\n","Input #0, mov,mp4,m4a,3gp,3g2,mj2, from 'data/videos/lf12.mp4':\n","  Metadata:\n","    major_brand     : isom\n","    minor_version   : 512\n","    compatible_brands: isomiso2mp41\n","    creation_time   : 2024-02-21T02:43:43.000000Z\n","    Hw              : 1\n","    bitrate         : 18000000\n","    com.apple.quicktime.artwork: {\"data\":{\"infoStickerId\":\"\",\"is_use_relight\":0,\"is_use_voice_optimization\":0,\"motion_blur_cnt\":0,\"musicId\":\"\",\"os\":\"windows\",\"product\":\"vicut\",\"stickerId\":\"\",\"videoEffectId\":\"\",\"videoId\":\"972dde1a-edd0-4a04-bdfa-b8ea6daeac73\",\"videoParams\":{\"be\":0,\"ef\":0,\n","    maxrate         : 0\n","    te_is_reencode  : 1\n","    encoder         : Lavf58.76.100\n","  Duration: 00:00:00.98, start: 0.000000, bitrate: 10988 kb/s\n","    Stream #0:0(und): Video: hevc (Main 10) (hvc1 / 0x31637668), yuv420p10le(tv, bt709, progressive), 1920x1080 [SAR 1:1 DAR 16:9], 11061 kb/s, 60 fps, 60 tbr, 60 tbn, 60 tbc (default)\n","    Metadata:\n","      creation_time   : 2024-02-21T02:43:43.000000Z\n","      handler_name    : VideoHandler\n","    Stream #0:1(und): Audio: aac (LC) (mp4a / 0x6134706D), 44100 Hz, stereo, fltp, 2 kb/s (default)\n","    Metadata:\n","      creation_time   : 2024-02-21T02:43:43.000000Z\n","      handler_name    : SoundHandler\n","Stream mapping:\n","  Stream #0:0 -> #0:0 (hevc (native) -> mjpeg (native))\n","Press [q] to stop, [?] for help\n","[swscaler @ 0x55f5000650c0] deprecated pixel format used, make sure you did set range correctly\n","Output #0, image2, to 'data/images/lf12/lf12_%04d.jpg':\n","  Metadata:\n","    major_brand     : isom\n","    minor_version   : 512\n","    compatible_brands: isomiso2mp41\n","    te_is_reencode  : 1\n","    Hw              : 1\n","    bitrate         : 18000000\n","    com.apple.quicktime.artwork: {\"data\":{\"infoStickerId\":\"\",\"is_use_relight\":0,\"is_use_voice_optimization\":0,\"motion_blur_cnt\":0,\"musicId\":\"\",\"os\":\"windows\",\"product\":\"vicut\",\"stickerId\":\"\",\"videoEffectId\":\"\",\"videoId\":\"972dde1a-edd0-4a04-bdfa-b8ea6daeac73\",\"videoParams\":{\"be\":0,\"ef\":0,\n","    maxrate         : 0\n","    encoder         : Lavf58.45.100\n","    Stream #0:0(und): Video: mjpeg, yuvj420p(pc), 1920x1080 [SAR 1:1 DAR 16:9], q=1-31, 200 kb/s, 60 fps, 60 tbn, 60 tbc (default)\n","    Metadata:\n","      creation_time   : 2024-02-21T02:43:43.000000Z\n","      handler_name    : VideoHandler\n","      encoder         : Lavc58.91.100 mjpeg\n","    Side data:\n","      cpb: bitrate max/min/avg: 0/0/200000 buffer size: 0 vbv_delay: N/A\n","frame=   58 fps=0.0 q=0.0 Lsize=N/A time=00:00:00.96 bitrate=N/A speed=1.25x    \n","video:37256kB audio:0kB subtitle:0kB other streams:0kB global headers:0kB muxing overhead: unknown\n"]},{"name":"stdout","output_type":"stream","text":["Conversion complete\n","data/videos/lf9.mp4 60/1\n"]},{"name":"stderr","output_type":"stream","text":["ffmpeg version 4.3.6-0+deb11u1 Copyright (c) 2000-2023 the FFmpeg developers\n","  built with gcc 10 (Debian 10.2.1-6)\n","  configuration: --prefix=/usr --extra-version=0+deb11u1 --toolchain=hardened --libdir=/usr/lib/x86_64-linux-gnu --incdir=/usr/include/x86_64-linux-gnu --arch=amd64 --enable-gpl --disable-stripping --enable-avresample --disable-filter=resample --enable-gnutls --enable-ladspa --enable-libaom --enable-libass --enable-libbluray --enable-libbs2b --enable-libcaca --enable-libcdio --enable-libcodec2 --enable-libdav1d --enable-libflite --enable-libfontconfig --enable-libfreetype --enable-libfribidi --enable-libgme --enable-libgsm --enable-libjack --enable-libmp3lame --enable-libmysofa --enable-libopenjpeg --enable-libopenmpt --enable-libopus --enable-libpulse --enable-librabbitmq --enable-librsvg --enable-librubberband --enable-libshine --enable-libsnappy --enable-libsoxr --enable-libspeex --enable-libsrt --enable-libssh --enable-libtheora --enable-libtwolame --enable-libvidstab --enable-libvorbis --enable-libvpx --enable-libwavpack --enable-libwebp --enable-libx265 --enable-libxml2 --enable-libxvid --enable-libzmq --enable-libzvbi --enable-lv2 --enable-omx --enable-openal --enable-opencl --enable-opengl --enable-sdl2 --enable-pocketsphinx --enable-libmfx --enable-libdc1394 --enable-libdrm --enable-libiec61883 --enable-chromaprint --enable-frei0r --enable-libx264 --enable-shared\n","  libavutil      56. 51.100 / 56. 51.100\n","  libavcodec     58. 91.100 / 58. 91.100\n","  libavformat    58. 45.100 / 58. 45.100\n","  libavdevice    58. 10.100 / 58. 10.100\n","  libavfilter     7. 85.100 /  7. 85.100\n","  libavresample   4.  0.  0 /  4.  0.  0\n","  libswscale      5.  7.100 /  5.  7.100\n","  libswresample   3.  7.100 /  3.  7.100\n","  libpostproc    55.  7.100 / 55.  7.100\n","Input #0, mov,mp4,m4a,3gp,3g2,mj2, from 'data/videos/lf9.mp4':\n","  Metadata:\n","    major_brand     : isom\n","    minor_version   : 512\n","    compatible_brands: isomiso2mp41\n","    creation_time   : 2024-02-21T02:42:34.000000Z\n","    Hw              : 1\n","    bitrate         : 18000000\n","    com.apple.quicktime.artwork: {\"data\":{\"infoStickerId\":\"\",\"is_use_relight\":0,\"is_use_voice_optimization\":0,\"motion_blur_cnt\":0,\"musicId\":\"\",\"os\":\"windows\",\"product\":\"vicut\",\"stickerId\":\"\",\"videoEffectId\":\"\",\"videoId\":\"a9bea447-e908-435f-b34a-99dc34e8dc71\",\"videoParams\":{\"be\":0,\"ef\":0,\n","    maxrate         : 0\n","    te_is_reencode  : 1\n","    encoder         : Lavf58.76.100\n","  Duration: 00:00:00.72, start: 0.000000, bitrate: 10678 kb/s\n","    Stream #0:0(und): Video: hevc (Main 10) (hvc1 / 0x31637668), yuv420p10le(tv, bt709, progressive), 1920x1080 [SAR 1:1 DAR 16:9], 10943 kb/s, 60 fps, 60 tbr, 60 tbn, 60 tbc (default)\n","    Metadata:\n","      creation_time   : 2024-02-21T02:42:34.000000Z\n","      handler_name    : VideoHandler\n","    Stream #0:1(und): Audio: aac (LC) (mp4a / 0x6134706D), 44100 Hz, stereo, fltp, 2 kb/s (default)\n","    Metadata:\n","      creation_time   : 2024-02-21T02:42:34.000000Z\n","      handler_name    : SoundHandler\n","Stream mapping:\n","  Stream #0:0 -> #0:0 (hevc (native) -> mjpeg (native))\n","Press [q] to stop, [?] for help\n","[swscaler @ 0x558008a14dc0] deprecated pixel format used, make sure you did set range correctly\n","Output #0, image2, to 'data/images/lf9/lf9_%04d.jpg':\n","  Metadata:\n","    major_brand     : isom\n","    minor_version   : 512\n","    compatible_brands: isomiso2mp41\n","    te_is_reencode  : 1\n","    Hw              : 1\n","    bitrate         : 18000000\n","    com.apple.quicktime.artwork: {\"data\":{\"infoStickerId\":\"\",\"is_use_relight\":0,\"is_use_voice_optimization\":0,\"motion_blur_cnt\":0,\"musicId\":\"\",\"os\":\"windows\",\"product\":\"vicut\",\"stickerId\":\"\",\"videoEffectId\":\"\",\"videoId\":\"a9bea447-e908-435f-b34a-99dc34e8dc71\",\"videoParams\":{\"be\":0,\"ef\":0,\n","    maxrate         : 0\n","    encoder         : Lavf58.45.100\n","    Stream #0:0(und): Video: mjpeg, yuvj420p(pc), 1920x1080 [SAR 1:1 DAR 16:9], q=1-31, 200 kb/s, 60 fps, 60 tbn, 60 tbc (default)\n","    Metadata:\n","      creation_time   : 2024-02-21T02:42:34.000000Z\n","      handler_name    : VideoHandler\n","      encoder         : Lavc58.91.100 mjpeg\n","    Side data:\n","      cpb: bitrate max/min/avg: 0/0/200000 buffer size: 0 vbv_delay: N/A\n","frame=   42 fps=0.0 q=0.0 Lsize=N/A time=00:00:00.70 bitrate=N/A speed=1.18x    \n","video:26759kB audio:0kB subtitle:0kB other streams:0kB global headers:0kB muxing overhead: unknown\n"]},{"name":"stdout","output_type":"stream","text":["Conversion complete\n","data/videos/lf4.mp4 60/1\n"]},{"name":"stderr","output_type":"stream","text":["ffmpeg version 4.3.6-0+deb11u1 Copyright (c) 2000-2023 the FFmpeg developers\n","  built with gcc 10 (Debian 10.2.1-6)\n","  configuration: --prefix=/usr --extra-version=0+deb11u1 --toolchain=hardened --libdir=/usr/lib/x86_64-linux-gnu --incdir=/usr/include/x86_64-linux-gnu --arch=amd64 --enable-gpl --disable-stripping --enable-avresample --disable-filter=resample --enable-gnutls --enable-ladspa --enable-libaom --enable-libass --enable-libbluray --enable-libbs2b --enable-libcaca --enable-libcdio --enable-libcodec2 --enable-libdav1d --enable-libflite --enable-libfontconfig --enable-libfreetype --enable-libfribidi --enable-libgme --enable-libgsm --enable-libjack --enable-libmp3lame --enable-libmysofa --enable-libopenjpeg --enable-libopenmpt --enable-libopus --enable-libpulse --enable-librabbitmq --enable-librsvg --enable-librubberband --enable-libshine --enable-libsnappy --enable-libsoxr --enable-libspeex --enable-libsrt --enable-libssh --enable-libtheora --enable-libtwolame --enable-libvidstab --enable-libvorbis --enable-libvpx --enable-libwavpack --enable-libwebp --enable-libx265 --enable-libxml2 --enable-libxvid --enable-libzmq --enable-libzvbi --enable-lv2 --enable-omx --enable-openal --enable-opencl --enable-opengl --enable-sdl2 --enable-pocketsphinx --enable-libmfx --enable-libdc1394 --enable-libdrm --enable-libiec61883 --enable-chromaprint --enable-frei0r --enable-libx264 --enable-shared\n","  libavutil      56. 51.100 / 56. 51.100\n","  libavcodec     58. 91.100 / 58. 91.100\n","  libavformat    58. 45.100 / 58. 45.100\n","  libavdevice    58. 10.100 / 58. 10.100\n","  libavfilter     7. 85.100 /  7. 85.100\n","  libavresample   4.  0.  0 /  4.  0.  0\n","  libswscale      5.  7.100 /  5.  7.100\n","  libswresample   3.  7.100 /  3.  7.100\n","  libpostproc    55.  7.100 / 55.  7.100\n","Input #0, mov,mp4,m4a,3gp,3g2,mj2, from 'data/videos/lf4.mp4':\n","  Metadata:\n","    major_brand     : isom\n","    minor_version   : 512\n","    compatible_brands: isomiso2mp41\n","    creation_time   : 2024-02-21T02:36:16.000000Z\n","    Hw              : 1\n","    bitrate         : 18000000\n","    com.apple.quicktime.artwork: {\"data\":{\"infoStickerId\":\"\",\"is_use_relight\":0,\"is_use_voice_optimization\":0,\"motion_blur_cnt\":0,\"musicId\":\"\",\"os\":\"windows\",\"product\":\"vicut\",\"stickerId\":\"\",\"videoEffectId\":\"\",\"videoId\":\"cc7af83d-a84c-4f12-8212-37b78207909c\",\"videoParams\":{\"be\":0,\"ef\":0,\n","    maxrate         : 0\n","    te_is_reencode  : 1\n","    encoder         : Lavf58.76.100\n","  Duration: 00:00:00.54, start: 0.000000, bitrate: 10395 kb/s\n","    Stream #0:0(und): Video: hevc (Main 10) (hvc1 / 0x31637668), yuv420p10le(tv, bt709, progressive), 1920x1080 [SAR 1:1 DAR 16:9], 10379 kb/s, 60 fps, 60 tbr, 60 tbn, 60 tbc (default)\n","    Metadata:\n","      creation_time   : 2024-02-21T02:36:16.000000Z\n","      handler_name    : VideoHandler\n","    Stream #0:1(und): Audio: aac (LC) (mp4a / 0x6134706D), 44100 Hz, stereo, fltp, 2 kb/s (default)\n","    Metadata:\n","      creation_time   : 2024-02-21T02:36:16.000000Z\n","      handler_name    : SoundHandler\n","Stream mapping:\n","  Stream #0:0 -> #0:0 (hevc (native) -> mjpeg (native))\n","Press [q] to stop, [?] for help\n","[swscaler @ 0x5585a086b6c0] deprecated pixel format used, make sure you did set range correctly\n","Output #0, image2, to 'data/images/lf4/lf4_%04d.jpg':\n","  Metadata:\n","    major_brand     : isom\n","    minor_version   : 512\n","    compatible_brands: isomiso2mp41\n","    te_is_reencode  : 1\n","    Hw              : 1\n","    bitrate         : 18000000\n","    com.apple.quicktime.artwork: {\"data\":{\"infoStickerId\":\"\",\"is_use_relight\":0,\"is_use_voice_optimization\":0,\"motion_blur_cnt\":0,\"musicId\":\"\",\"os\":\"windows\",\"product\":\"vicut\",\"stickerId\":\"\",\"videoEffectId\":\"\",\"videoId\":\"cc7af83d-a84c-4f12-8212-37b78207909c\",\"videoParams\":{\"be\":0,\"ef\":0,\n","    maxrate         : 0\n","    encoder         : Lavf58.45.100\n","    Stream #0:0(und): Video: mjpeg, yuvj420p(pc), 1920x1080 [SAR 1:1 DAR 16:9], q=1-31, 200 kb/s, 60 fps, 60 tbn, 60 tbc (default)\n","    Metadata:\n","      creation_time   : 2024-02-21T02:36:16.000000Z\n","      handler_name    : VideoHandler\n","      encoder         : Lavc58.91.100 mjpeg\n","    Side data:\n","      cpb: bitrate max/min/avg: 0/0/200000 buffer size: 0 vbv_delay: N/A\n","frame=   32 fps=0.0 q=0.0 Lsize=N/A time=00:00:00.53 bitrate=N/A speed=1.13x    \n","video:19552kB audio:0kB subtitle:0kB other streams:0kB global headers:0kB muxing overhead: unknown\n"]},{"name":"stdout","output_type":"stream","text":["Conversion complete\n","data/videos/lf13.mp4 60/1\n"]},{"name":"stderr","output_type":"stream","text":["ffmpeg version 4.3.6-0+deb11u1 Copyright (c) 2000-2023 the FFmpeg developers\n","  built with gcc 10 (Debian 10.2.1-6)\n","  configuration: --prefix=/usr --extra-version=0+deb11u1 --toolchain=hardened --libdir=/usr/lib/x86_64-linux-gnu --incdir=/usr/include/x86_64-linux-gnu --arch=amd64 --enable-gpl --disable-stripping --enable-avresample --disable-filter=resample --enable-gnutls --enable-ladspa --enable-libaom --enable-libass --enable-libbluray --enable-libbs2b --enable-libcaca --enable-libcdio --enable-libcodec2 --enable-libdav1d --enable-libflite --enable-libfontconfig --enable-libfreetype --enable-libfribidi --enable-libgme --enable-libgsm --enable-libjack --enable-libmp3lame --enable-libmysofa --enable-libopenjpeg --enable-libopenmpt --enable-libopus --enable-libpulse --enable-librabbitmq --enable-librsvg --enable-librubberband --enable-libshine --enable-libsnappy --enable-libsoxr --enable-libspeex --enable-libsrt --enable-libssh --enable-libtheora --enable-libtwolame --enable-libvidstab --enable-libvorbis --enable-libvpx --enable-libwavpack --enable-libwebp --enable-libx265 --enable-libxml2 --enable-libxvid --enable-libzmq --enable-libzvbi --enable-lv2 --enable-omx --enable-openal --enable-opencl --enable-opengl --enable-sdl2 --enable-pocketsphinx --enable-libmfx --enable-libdc1394 --enable-libdrm --enable-libiec61883 --enable-chromaprint --enable-frei0r --enable-libx264 --enable-shared\n","  libavutil      56. 51.100 / 56. 51.100\n","  libavcodec     58. 91.100 / 58. 91.100\n","  libavformat    58. 45.100 / 58. 45.100\n","  libavdevice    58. 10.100 / 58. 10.100\n","  libavfilter     7. 85.100 /  7. 85.100\n","  libavresample   4.  0.  0 /  4.  0.  0\n","  libswscale      5.  7.100 /  5.  7.100\n","  libswresample   3.  7.100 /  3.  7.100\n","  libpostproc    55.  7.100 / 55.  7.100\n","Input #0, mov,mp4,m4a,3gp,3g2,mj2, from 'data/videos/lf13.mp4':\n","  Metadata:\n","    major_brand     : isom\n","    minor_version   : 512\n","    compatible_brands: isomiso2mp41\n","    creation_time   : 2024-02-21T02:44:14.000000Z\n","    Hw              : 1\n","    bitrate         : 18000000\n","    com.apple.quicktime.artwork: {\"data\":{\"infoStickerId\":\"\",\"is_use_relight\":0,\"is_use_voice_optimization\":0,\"motion_blur_cnt\":0,\"musicId\":\"\",\"os\":\"windows\",\"product\":\"vicut\",\"stickerId\":\"\",\"videoEffectId\":\"\",\"videoId\":\"31a11319-351d-4a5d-a81d-1f914b85a385\",\"videoParams\":{\"be\":0,\"ef\":0,\n","    maxrate         : 0\n","    te_is_reencode  : 1\n","    encoder         : Lavf58.76.100\n","  Duration: 00:00:00.72, start: 0.000000, bitrate: 10523 kb/s\n","    Stream #0:0(und): Video: hevc (Main 10) (hvc1 / 0x31637668), yuv420p10le(tv, bt709, progressive), 1920x1080 [SAR 1:1 DAR 16:9], 10533 kb/s, 60 fps, 60 tbr, 60 tbn, 60 tbc (default)\n","    Metadata:\n","      creation_time   : 2024-02-21T02:44:14.000000Z\n","      handler_name    : VideoHandler\n","    Stream #0:1(und): Audio: aac (LC) (mp4a / 0x6134706D), 44100 Hz, stereo, fltp, 2 kb/s (default)\n","    Metadata:\n","      creation_time   : 2024-02-21T02:44:14.000000Z\n","      handler_name    : SoundHandler\n","Stream mapping:\n","  Stream #0:0 -> #0:0 (hevc (native) -> mjpeg (native))\n","Press [q] to stop, [?] for help\n","[swscaler @ 0x55b294d6e4c0] deprecated pixel format used, make sure you did set range correctly\n","Output #0, image2, to 'data/images/lf13/lf13_%04d.jpg':\n","  Metadata:\n","    major_brand     : isom\n","    minor_version   : 512\n","    compatible_brands: isomiso2mp41\n","    te_is_reencode  : 1\n","    Hw              : 1\n","    bitrate         : 18000000\n","    com.apple.quicktime.artwork: {\"data\":{\"infoStickerId\":\"\",\"is_use_relight\":0,\"is_use_voice_optimization\":0,\"motion_blur_cnt\":0,\"musicId\":\"\",\"os\":\"windows\",\"product\":\"vicut\",\"stickerId\":\"\",\"videoEffectId\":\"\",\"videoId\":\"31a11319-351d-4a5d-a81d-1f914b85a385\",\"videoParams\":{\"be\":0,\"ef\":0,\n","    maxrate         : 0\n","    encoder         : Lavf58.45.100\n","    Stream #0:0(und): Video: mjpeg, yuvj420p(pc), 1920x1080 [SAR 1:1 DAR 16:9], q=1-31, 200 kb/s, 60 fps, 60 tbn, 60 tbc (default)\n","    Metadata:\n","      creation_time   : 2024-02-21T02:44:14.000000Z\n","      handler_name    : VideoHandler\n","      encoder         : Lavc58.91.100 mjpeg\n","    Side data:\n","      cpb: bitrate max/min/avg: 0/0/200000 buffer size: 0 vbv_delay: N/A\n"]},{"name":"stdout","output_type":"stream","text":["Conversion complete\n"]},{"name":"stderr","output_type":"stream","text":["frame=   43 fps=0.0 q=0.0 Lsize=N/A time=00:00:00.71 bitrate=N/A speed=1.19x    \n","video:27384kB audio:0kB subtitle:0kB other streams:0kB global headers:0kB muxing overhead: unknown\n"]}],"source":["import subprocess,os,glob\n","from IPython.display import Video\n","from moviepy.editor import *\n","\n","def get_file_extension_from_filepath(filepath): return filepath.split('.')[-1]\n","def get_filename_from_filepath(filepath): return filepath.split('/')[-1].split('.')[0]\n","\n","def get_video_fps(filepath):\n","    # Get the original frame rate using ffprobe\n","    ffprobe_cmd = [\n","        \"ffprobe\",\n","        \"-v\", \"error\",\n","        \"-select_streams\", \"v:0\",\n","        \"-show_entries\", \"stream=r_frame_rate\",\n","        \"-of\", \"default=noprint_wrappers=1:nokey=1\",\n","        filepath\n","    ]\n","    # Run ffprobe to get the frame rate\n","    result = subprocess.run(ffprobe_cmd, stdout=subprocess.PIPE, stderr=subprocess.PIPE, text=True)\n","    original_fps = result.stdout.strip()\n","    return original_fps\n","\n","def convert_video_to_images(filepath, paths):\n","    filename = get_filename_from_filepath(filepath)\n","    original_fps = get_video_fps(filepath)\n","    # original_fps=60\n","    folder = f\"{paths['images']}/{filename}\"\n","    os.makedirs(folder,exist_ok=True)\n","    output_image_pattern = f\"{folder}/{filename}_%04d.jpg\"  # Adjust output pattern as needed\n","\n","    # Define FFmpeg command to convert MXF to images\n","    ffmpeg_cmd = [\n","        \"ffmpeg\",\n","        \"-y\",               # Automatically overwrite output files\n","        \"-i\", filepath,\n","        \"-vf\", f\"fps={original_fps}\",  # Set output frame rate\n","        '-q:v', '0',             # Output quality (0 - 31, 2 is a good default)\n","        '-qmin', '1',            # Minimum quantization value\n","        '-qmax', '31',           # Maximum quantization value\n","        output_image_pattern\n","    ]\n","\n","    subprocess.run(ffmpeg_cmd, check=True)\n","    print(\"Conversion complete\")\n","\n","# set folders and create them if needed\n","data_path =  f'data'\n","paths = {\n","    'videos':f'{data_path}/videos',\n","    'images':f'{data_path}/images',\n","    }\n","for p in paths.values(): os.makedirs(p,exist_ok=True)\n","videos = glob.glob(f\"{paths['videos']}/*\")\n","videos_processed =  ['data/videos/rf0.mp4']\n","videos_to_process = [v for v in videos if v not in videos_processed]\n","\n","# for video in videos_to_process:\n","#     print(video, get_video_fps(video))\n","#     convert_video_to_images(video, paths)"]},{"cell_type":"markdown","metadata":{},"source":["### Utils cli to split the data between datasets\n"," \n","```\n","# count files\n","folder = 'lf13'\n","!find \"/home/rafaa/pmy/penalty_project/data/images/$folder/no\" -type f | wc -l\n","!find \"/home/rafaa/pmy/penalty_project/data/images/$folder/yes\" -type f | wc -l\n","\n","# move files\n","datasets_folders = {\n","    'train':['lf4', 'lf5', 'lf6', 'lf7', 'lf8', 'lf9', 'lf10', 'lf11'],\n","    'valid':['lf12'],\n","    'test': ['lf13']}\n","for dataset,folders in datasets_folders.items():\n","    for folder in folders:\n","        !echo $dataset and $folder\n","        # !mv data/images/$folder/no/* data/dataset/train/no/\n","        # !mv data/images/$folder/yes/* data/dataset/train/yes/\n","        # !rm -r data/images/$folder\n","```"]},{"cell_type":"markdown","metadata":{},"source":["## Plotando os frames de um video"]},{"cell_type":"code","execution_count":null,"metadata":{"id":"nXk0HM7mXPC4"},"outputs":[],"source":["import cv2 as cv\n","from PIL import Image\n","import matplotlib.pyplot as plt\n","\n","DEBUG = 1\n","video='data/videos/rf0.mp4'\n","cap = cv.VideoCapture(video)\n","\n","# Check if the video file is opened successfully\n","if not cap.isOpened(): \n","    print(\"Error: Could not open video file.\")\n","    # return\n","    print('error') \n","\n","# Get the video codec and properties from the input video \n","fps = int(cap.get(cv.CAP_PROP_FPS))\n","width = int(cap.get(cv.CAP_PROP_FRAME_WIDTH))\n","height = int(cap.get(cv.CAP_PROP_FRAME_HEIGHT))\n","frame_count = int(cap.get(cv.CAP_PROP_FRAME_COUNT))\n","\n","total_duration = frame_count / fps \n","print(f\"Video (sec): {0}-{round(total_duration,2)}\")\n","print(f\"Frames: {0}-{frame_count}\")\n","\n","q=0\n","frame_number=0\n","q_max = 5\n","cap.set(cv.CAP_PROP_POS_FRAMES, frame_number)\n","while(True):\n","    ret, frame = cap.read()\n","    if not ret:\n","        print(f\"Error reading frame {frame_number}\")\n","        break\n","    \n","    # Get the timestamp (time in ms) of the frame\n","    frame_time = int(cap.get(cv.CAP_PROP_POS_MSEC))\n","\n","    # plot the predicted image\n","    im = Image.fromarray(frame[..., ::-1])  # RGB PIL image\n","        \n","    # show img\n","    plt.imshow(im)\n","    plt.title(f\"Frame {frame_number} - {round(frame_time,5)} ms\")\n","    plt.axis('off')\n","    plt.show()\n","        \n","    if(q == q_max): break\n","    frame_number+=1\n","    q+=1\n","\n","cap.release()"]},{"cell_type":"code","execution_count":null,"metadata":{},"outputs":[],"source":["import cv2 as cv\n","from PIL import Image\n","import matplotlib.pyplot as plt\n","\n","DEBUG = 1\n","cap = cv.VideoCapture(video)\n","\n","if not cap.isOpened(): \n","    print(\"Error: Could not open video file.\")\n","    print('error') \n","\n","# Get the video codec and properties from the input video \n","fps = int(cap.get(cv.CAP_PROP_FPS))\n","width = int(cap.get(cv.CAP_PROP_FRAME_WIDTH))\n","height = int(cap.get(cv.CAP_PROP_FRAME_HEIGHT))\n","frame_count = int(cap.get(cv.CAP_PROP_FRAME_COUNT))\n","\n","total_duration = frame_count / fps \n","print(f\"Video (sec): {0}-{round(total_duration,2)}\")\n","print(f\"Frames: {0}-{frame_count}\")\n","\n","frame_number=200\n","cap.set(cv.CAP_PROP_POS_FRAMES, frame_number)\n","ret, frame = cap.read()\n","plt.axis('off')\n","plt.imshow(im)\n","\n","# while(True):\n","#     ret, frame = cap.read()\n","#     if not ret:\n","#         print(f\"Error reading frame {frame_number}\")\n","#         break\n","    \n","#     # Get the timestamp (time in ms) of the frame\n","#     frame_time = int(cap.get(cv.CAP_PROP_POS_MSEC))\n","\n","#     # plot the predicted image\n","#     im = Image.fromarray(frame[..., ::-1])  # RGB PIL image\n","#     plt.imshow(im)\n","#     plt.title(f\"Frame {frame_number} - {round(frame_time,5)} ms\")\n","#     plt.axis('off')\n","#     plt.show()\n","        \n","#     if(DEBUG & (frame_number == 5)): break\n","#     frame_number+=1\n","\n","cap.release()"]},{"cell_type":"markdown","metadata":{},"source":["## Treinando o modelo YOLO V8\n","editar o arquivo de configurações, de acordo com os valores abaixo:\n","```\n","# /home/rafaa/.config/Ultralytics/settings.yaml\n","datasets_dir: /home/rafaa/pmy/penalty_project/data\n","weights_dir: /home/rafaa/pmy/penalty_project/data/weights\n","runs_dir: /home/rafaa/pmy/penalty_project/data/runs\n","```"]},{"cell_type":"code","execution_count":28,"metadata":{},"outputs":[{"data":{"text/plain":["'/home/rafaa/pmy/penalty_project'"]},"execution_count":28,"metadata":{},"output_type":"execute_result"}],"source":["os.getcwd()"]},{"cell_type":"code","execution_count":29,"metadata":{},"outputs":[{"name":"stdout","output_type":"stream","text":["/home/rafaa/pmy/penalty_project\n","/home/rafaa/pmy/penalty_project/data\n"]}],"source":["from IPython.display import display\n","from PIL import Image\n","from ultralytics import YOLO\n","import os\n","\n","# change current folder\n","print(os.getcwd())\n","if 'data' not in os.getcwd():\n","    # os.makedirs('data/dataset',exist_ok=True) # criar diretorio\n","    os.chdir('data')\n","print(os.getcwd())"]},{"cell_type":"markdown","metadata":{},"source":["Realizando o treinamento com GPU"]},{"cell_type":"code","execution_count":34,"metadata":{},"outputs":[{"name":"stderr","output_type":"stream","text":["New https://pypi.org/project/ultralytics/8.1.17 available 😃 Update with 'pip install -U ultralytics'\n","Ultralytics YOLOv8.0.192 🚀 Python-3.10.12 torch-2.0.0+cu118 CUDA:0 (Tesla V100-SXM2-16GB, 16151MiB)\n","\u001b[34m\u001b[1mengine/trainer: \u001b[0mtask=classify, mode=train, model=yolov8n-cls.pt, data=dataset, epochs=100, patience=50, batch=16, imgsz=640, save=True, save_period=-1, cache=False, device=0, workers=8, project=None, name=None, exist_ok=False, pretrained=True, optimizer=auto, verbose=True, seed=0, deterministic=True, single_cls=False, rect=False, cos_lr=False, close_mosaic=10, resume=False, amp=True, fraction=1.0, profile=False, freeze=None, overlap_mask=True, mask_ratio=4, dropout=0.0, val=True, split=val, save_json=False, save_hybrid=False, conf=None, iou=0.7, max_det=300, half=False, dnn=False, plots=True, source=None, show=False, save_txt=False, save_conf=False, save_crop=False, show_labels=True, show_conf=True, vid_stride=1, stream_buffer=False, line_width=None, visualize=False, augment=False, agnostic_nms=False, classes=None, retina_masks=False, boxes=True, format=torchscript, keras=False, optimize=False, int8=False, dynamic=False, simplify=False, opset=None, workspace=4, nms=False, lr0=0.01, lrf=0.01, momentum=0.937, weight_decay=0.0005, warmup_epochs=3.0, warmup_momentum=0.8, warmup_bias_lr=0.1, box=7.5, cls=0.5, dfl=1.5, pose=12.0, kobj=1.0, label_smoothing=0.0, nbs=64, hsv_h=0.015, hsv_s=0.7, hsv_v=0.4, degrees=0.0, translate=0.1, scale=0.5, shear=0.0, perspective=0.0, flipud=0.0, fliplr=0.5, mosaic=1.0, mixup=0.0, copy_paste=0.0, cfg=None, tracker=botsort.yaml, save_dir=/home/rafaa/pmy/penalty_project/data/dataset/runs/classify/train2\n","\u001b[34m\u001b[1mtrain:\u001b[0m /home/rafaa/pmy/penalty_project/data/dataset/train... found 278 images in 2 classes ✅ \n","\u001b[34m\u001b[1mval:\u001b[0m None...\n","\u001b[34m\u001b[1mtest:\u001b[0m /home/rafaa/pmy/penalty_project/data/dataset/test... found 34 images in 2 classes ✅ \n","Overriding model.yaml nc=1000 with nc=2\n","\n","                   from  n    params  module                                       arguments                     \n","  0                  -1  1       464  ultralytics.nn.modules.conv.Conv             [3, 16, 3, 2]                 \n","  1                  -1  1      4672  ultralytics.nn.modules.conv.Conv             [16, 32, 3, 2]                \n","  2                  -1  1      7360  ultralytics.nn.modules.block.C2f             [32, 32, 1, True]             \n","  3                  -1  1     18560  ultralytics.nn.modules.conv.Conv             [32, 64, 3, 2]                \n","  4                  -1  2     49664  ultralytics.nn.modules.block.C2f             [64, 64, 2, True]             \n","  5                  -1  1     73984  ultralytics.nn.modules.conv.Conv             [64, 128, 3, 2]               \n","  6                  -1  2    197632  ultralytics.nn.modules.block.C2f             [128, 128, 2, True]           \n","  7                  -1  1    295424  ultralytics.nn.modules.conv.Conv             [128, 256, 3, 2]              \n","  8                  -1  1    460288  ultralytics.nn.modules.block.C2f             [256, 256, 1, True]           \n","  9                  -1  1    332802  ultralytics.nn.modules.head.Classify         [256, 2]                      \n","YOLOv8n-cls summary: 99 layers, 1440850 parameters, 1440850 gradients, 3.4 GFLOPs\n","Transferred 156/158 items from pretrained weights\n","\u001b[34m\u001b[1mAMP: \u001b[0mrunning Automatic Mixed Precision (AMP) checks with YOLOv8n...\n","Downloading https://github.com/ultralytics/assets/releases/download/v0.0.0/yolov8n.pt to 'yolov8n.pt'...\n","100%|██████████| 6.23M/6.23M [00:00<00:00, 65.5MB/s]\n","\u001b[34m\u001b[1mAMP: \u001b[0mchecks passed ✅\n","\u001b[34m\u001b[1mtrain: \u001b[0mScanning /home/rafaa/pmy/penalty_project/data/dataset/train... 278 images, 0 corrupt: 100%|██████████| 278/278 [00:00<?, ?it/s]\n","\u001b[34m\u001b[1mval: \u001b[0mScanning /home/rafaa/pmy/penalty_project/data/dataset/test... 34 images, 0 corrupt: 100%|██████████| 34/34 [00:00<?, ?it/s]\n","\u001b[34m\u001b[1moptimizer:\u001b[0m 'optimizer=auto' found, ignoring 'lr0=0.01' and 'momentum=0.937' and determining best 'optimizer', 'lr0' and 'momentum' automatically... \n","\u001b[34m\u001b[1moptimizer:\u001b[0m AdamW(lr=0.000714, momentum=0.9) with parameter groups 26 weight(decay=0.0), 27 weight(decay=0.0005), 27 bias(decay=0.0)\n","Image sizes 640 train, 640 val\n","Using 8 dataloader workers\n","Logging results to \u001b[1m/home/rafaa/pmy/penalty_project/data/dataset/runs/classify/train2\u001b[0m\n","Starting training for 100 epochs...\n","\n","      Epoch    GPU_mem       loss  Instances       Size\n","      1/100      1.54G     0.1681          6        640: 100%|██████████| 18/18 [00:04<00:00,  4.46it/s]\n","               classes   top1_acc   top5_acc: 100%|██████████| 2/2 [00:00<00:00, 31.62it/s]\n","                   all        0.5          1\n","\n","      Epoch    GPU_mem       loss  Instances       Size\n","      2/100       1.4G      0.155          6        640: 100%|██████████| 18/18 [00:02<00:00,  6.85it/s]\n","               classes   top1_acc   top5_acc: 100%|██████████| 2/2 [00:00<00:00, 49.07it/s]\n","                   all      0.706          1\n","\n","      Epoch    GPU_mem       loss  Instances       Size\n","      3/100      1.41G     0.1237          6        640: 100%|██████████| 18/18 [00:01<00:00,  9.88it/s]\n","               classes   top1_acc   top5_acc: 100%|██████████| 2/2 [00:00<00:00, 28.74it/s]\n","                   all      0.794          1\n","\n","      Epoch    GPU_mem       loss  Instances       Size\n","      4/100       1.4G    0.06449          6        640: 100%|██████████| 18/18 [00:01<00:00,  9.36it/s]\n","               classes   top1_acc   top5_acc: 100%|██████████| 2/2 [00:00<00:00, 23.88it/s]\n","                   all      0.882          1\n","\n","      Epoch    GPU_mem       loss  Instances       Size\n","      5/100       1.4G    0.01586          6        640: 100%|██████████| 18/18 [00:02<00:00,  8.95it/s]\n","               classes   top1_acc   top5_acc: 100%|██████████| 2/2 [00:00<00:00, 23.72it/s]\n","                   all      0.853          1\n","\n","      Epoch    GPU_mem       loss  Instances       Size\n","      6/100      1.41G    0.01091          6        640: 100%|██████████| 18/18 [00:02<00:00,  7.78it/s]\n","               classes   top1_acc   top5_acc: 100%|██████████| 2/2 [00:00<00:00, 28.37it/s]\n","                   all      0.882          1\n","\n","      Epoch    GPU_mem       loss  Instances       Size\n","      7/100       1.4G    0.01411          6        640: 100%|██████████| 18/18 [00:01<00:00, 10.21it/s]\n","               classes   top1_acc   top5_acc: 100%|██████████| 2/2 [00:00<00:00, 23.48it/s]\n","                   all      0.735          1\n","\n","      Epoch    GPU_mem       loss  Instances       Size\n","      8/100      1.41G    0.01135          6        640: 100%|██████████| 18/18 [00:01<00:00, 10.34it/s]\n","               classes   top1_acc   top5_acc: 100%|██████████| 2/2 [00:00<00:00, 21.03it/s]\n","                   all      0.765          1\n","\n","      Epoch    GPU_mem       loss  Instances       Size\n","      9/100       1.4G   0.003211          6        640: 100%|██████████| 18/18 [00:02<00:00,  8.76it/s]\n","               classes   top1_acc   top5_acc: 100%|██████████| 2/2 [00:00<00:00, 39.48it/s]\n","                   all      0.941          1\n","\n","      Epoch    GPU_mem       loss  Instances       Size\n","     10/100      1.41G   0.004366          6        640: 100%|██████████| 18/18 [00:01<00:00,  9.09it/s]\n","               classes   top1_acc   top5_acc: 100%|██████████| 2/2 [00:00<00:00, 21.91it/s]\n","                   all      0.941          1\n","\n","      Epoch    GPU_mem       loss  Instances       Size\n","     11/100       1.4G   0.002939          6        640: 100%|██████████| 18/18 [00:01<00:00,  9.29it/s]\n","               classes   top1_acc   top5_acc: 100%|██████████| 2/2 [00:00<00:00, 51.78it/s]\n","                   all      0.882          1\n"]}],"source":["model = YOLO('yolov8n-cls.pt')\n","results = model.train(\n","    data='dataset',\n","    epochs=100,\n","    imgsz=640,\n","    verbose=True,\n","    device=0)"]},{"cell_type":"markdown","metadata":{},"source":["# Inferindo"]},{"cell_type":"markdown","metadata":{},"source":["## Imagem"]},{"cell_type":"code","execution_count":null,"metadata":{},"outputs":[],"source":["from IPython.display import display\n","from PIL import Image\n","from ultralytics import YOLO\n","import os\n","\n","# change current folder\n","os.chdir('/home/rafaa/pmy/penalty_project/data')\n","best_model_path = '/home/rafaa/pmy/penalty_project/data/runs/classify/train/weights/best.pt'\n","path = \"/home/rafaa/pmy/penalty_project/data/images/IMG_5369/IMG_5369_0010.jpg\"\n","\n","# Load the model\n","model = YOLO(best_model_path)\n","\n","# inference\n","r = model(path,save=False, conf=0.15, iou=0.1,device='0')[0]\n","\n","# Show the results\n","im_array = r.plot(conf=True)  # plot a BGR numpy array of predictions\n","im = Image.fromarray(im_array[..., ::-1])  # RGB PIL image\n","display(im)\n","\n","# Tratando o resultado\n","classes_names = r.names\n","probs = r.cpu().probs.data.tolist()\n","classes_probs = {}\n","for k,v in classes_names.items(): classes_probs[v] = round(probs[k],2)\n","print(\"Results : \", classes_probs)\n"]},{"cell_type":"markdown","metadata":{},"source":["## frames de um Video"]},{"cell_type":"code","execution_count":null,"metadata":{},"outputs":[],"source":["from IPython.display import display\n","from PIL import Image\n","from ultralytics import YOLO\n","import os\n","import cv2 as cv\n","import matplotlib.pyplot as plt\n","\n","path,frame_start,frame_end = 'videos/IMG_5361.MOV',70,100 # test \n","path,frame_start,frame_end = 'videos/IMG_5358.MOV',44,50 # valid\n","\n","# change current folder\n","os.chdir('/home/rafaa/pmy/penalty_project/data')\n","best_model_path = 'runs/classify/train/weights/best.pt'\n","\n","# Load the model\n","model = YOLO(best_model_path)\n","DEBUG = 1\n","count = 0\n","cap = cv.VideoCapture(path)\n","\n","# Check if the video file is opened successfully\n","if not cap.isOpened(): \n","    print(\"Error: Could not open video file.\")\n","    # return\n","    print('error') \n","\n","# Get the video codec and properties from the input video \n","fps = int(cap.get(cv.CAP_PROP_FPS))\n","width = int(cap.get(cv.CAP_PROP_FRAME_WIDTH))\n","height = int(cap.get(cv.CAP_PROP_FRAME_HEIGHT))\n","frame_count = int(cap.get(cv.CAP_PROP_FRAME_COUNT))\n","total_duration = frame_count / fps \n","print(f\"Video (sec): {0}-{round(total_duration,2)}\")\n","print(f\"Frames: {0}-{frame_count}\")\n","\n","frame_number=0\n","cap.set(cv.CAP_PROP_POS_FRAMES, frame_number)\n","while(True):\n","    ret, frame = cap.read()\n","    if not ret:\n","        print(f\"Error reading frame {frame_number}\")\n","        break\n","\n","    frame_ = frame.copy()\n","    # Get the timestamp (time in ms) of the frame\n","    frame_time = int(cap.get(cv.CAP_PROP_POS_MSEC))\n","    frame_number+=1\n","\n","    if (frame_number < frame_start or frame_number > frame_end) : continue\n","\n","    count+=1\n","    # inference\n","    r = model(frame,save=False, conf=0.01, iou=0.1,device='0',verbose=False)[0]\n","\n","    classes_names = r.names\n","    probs = r.cpu().probs.data.tolist()\n","    classes_probs = {}\n","    for k,v in classes_names.items(): classes_probs[v] = round(probs[k],2)\n","\n","    # Define the position and size of the rectangle\n","    top_left_corner = (0, 0)\n","    bottom_right_corner = (width, 100)\n","    rectangle_color = (255, 255, 255)  # White color in BGR\n","    rectangle_thickness = -1  # Filled rectangle\n","\n","    # Draw the white rectangle\n","    cv.rectangle(frame, top_left_corner, bottom_right_corner, rectangle_color, rectangle_thickness)\n","\n","    # Write text on the frame using OpenCV before converting it to RGB\n","    font = cv.FONT_HERSHEY_SIMPLEX\n","    classes_probs_text = f\"No ({classes_probs['no']*100.0}%) - Yes ({classes_probs['yes']*100.0}%)\" \n","    text = f\"Frame {frame_number}/{frame_count} - Time {round(frame_time,5)} ms - {classes_probs_text}\"\n","    position = (50, 70)\n","    font_scale = 1.5\n","    font_color = (0, 0, 0)\n","    line_type = 2\n","\n","    # Calculate text size\n","    (text_width, text_height), _ = cv.getTextSize(text, font, font_scale, line_type)\n","\n","    # Calculate the center position\n","    text_x = (width - text_width) // 2\n","    text_y = top_left_corner[1] + ((bottom_right_corner[1] - top_left_corner[1]) + text_height) // 2\n","\n","    # The position where the text will start\n","    position = (text_x, text_y)\n","\n","    # Put the text on the frame\n","    cv.putText(frame, text, position, font, font_scale, font_color, line_type)\n","    frame_rgb = cv.cvtColor(frame, cv.COLOR_BGR2RGB)\n","\n","    # save\n","    cv.imwrite(f'{frame_number}.jpg', frame)\n","\n","    plt.figure(figsize=(10, 5))\n","    plt.imshow(frame_rgb)\n","    plt.axis('off')\n","    plt.show()\n","\n","    if(DEBUG == 1 and count == 1): break\n","\n","cap.release()"]},{"cell_type":"code","execution_count":null,"metadata":{},"outputs":[],"source":["frame = frame_.copy()\n","\n","# Define the position and size of the rectangle\n","top_left_corner = (0, 0)\n","bottom_right_corner = (width, 100)\n","rectangle_color = (255, 255, 255)  # White color in BGR\n","rectangle_thickness = -1  # Filled rectangle\n","\n","# Draw the white rectangle\n","cv.rectangle(frame, top_left_corner, bottom_right_corner, rectangle_color, rectangle_thickness)\n","\n","# Write text on the frame using OpenCV before converting it to RGB\n","font = cv.FONT_HERSHEY_SIMPLEX\n","classes_probs_text = f\"No ({classes_probs['no']*100.0}%) - Yes ({classes_probs['yes']*100.0}%)\" \n","text = f\"Frame {frame_number}/{frame_count} - Time {round(frame_time,5)} ms - {classes_probs_text}\"\n","position = (50, 70)\n","font_scale = 1.5\n","font_color = (0, 0, 0)\n","line_type = 2\n","\n","# Calculate text size\n","(text_width, text_height), _ = cv.getTextSize(text, font, font_scale, line_type)\n","\n","# Calculate the center position\n","text_x = (width - text_width) // 2\n","text_y = top_left_corner[1] + ((bottom_right_corner[1] - top_left_corner[1]) + text_height) // 2\n","\n","# The position where the text will start\n","position = (text_x, text_y)\n","\n","# Put the text on the frame\n","cv.putText(frame, text, position, font, font_scale, font_color, line_type)\n","frame_rgb = cv.cvtColor(frame, cv.COLOR_BGR2RGB)\n","\n","cv.imwrite('image.png', frame)\n","\n","plt.imshow(frame_rgb)\n","plt.axis('off')\n","plt.show()"]}],"metadata":{"colab":{"authorship_tag":"ABX9TyNkiQIMcb9KkK/Pmmxlu4GX","provenance":[]},"kernelspec":{"display_name":"Python 3","name":"python3"},"language_info":{"codemirror_mode":{"name":"ipython","version":3},"file_extension":".py","mimetype":"text/x-python","name":"python","nbconvert_exporter":"python","pygments_lexer":"ipython3","version":"3.10.12"}},"nbformat":4,"nbformat_minor":0}
